<?xml version="1.0" ?><svg xmlns="http://www.w3.org/2000/svg" xmlns:xlink="http://www.w3.org/1999/xlink" width="216pt" height="270pt" viewBox="0.00 0.00 216.00 270.00"><style>.txt { alignment-baseline:middle; text-anchor:middle; font-family:Times,serif; }</style><a xlink:href="https://algviz.com/"><g class="frame" style="opacity:0" transform="translate(5,5.0)"><g id="graph0" class="graph" transform="scale(1 1) rotate(0) translate(4 4)"><polygon fill="transparent" stroke="transparent" points="-4,4 -4,-4 4,-4 4,4 -4,4"/></g><g id="graph1" class="graph" transform="scale(1 1) rotate(0) translate(4 256)"><g id="node1" class="node" style="opacity:0"><ellipse fill="none" stroke="#7b7b7b" cx="72" cy="-90" rx="18" ry="18"/><text text-anchor="middle" x="72" y="-86.3" font-family="Times New Roman,serif" font-size="14.00">5</text><animate attributeName="opacity" from="0" to="1" begin="0S0.end+0.00s" dur="1.00s" fill="freeze"/><animate attributeName="opacity" from="1" to="0" begin="0E0.end" dur="0.01s" fill="freeze"/></g><g id="node2" class="node" style="opacity:0"><ellipse fill="none" stroke="#7b7b7b" cx="99" cy="-18" rx="18" ry="18"/><text text-anchor="middle" x="99" y="-14.3" font-family="Times New Roman,serif" font-size="14.00">9</text><animate attributeName="opacity" from="0" to="1" begin="0S0.end+0.00s" dur="1.00s" fill="freeze"/><animate attributeName="opacity" from="1" to="0" begin="0E0.end" dur="0.01s" fill="freeze"/></g><g id="node3" class="node" style="opacity:0"><ellipse fill="none" stroke="#7b7b7b" cx="18" cy="-90" rx="18" ry="18"/><text text-anchor="middle" x="18" y="-86.3" font-family="Times New Roman,serif" font-size="14.00">4</text><animate attributeName="opacity" from="0" to="1" begin="0S0.end+0.00s" dur="1.00s" fill="freeze"/><animate attributeName="opacity" from="1" to="0" begin="0E0.end" dur="0.01s" fill="freeze"/></g><g id="node4" class="node" style="opacity:0"><ellipse fill="none" stroke="#7b7b7b" cx="45" cy="-18" rx="18" ry="18"/><text text-anchor="middle" x="45" y="-14.3" font-family="Times New Roman,serif" font-size="14.00">8</text><animate attributeName="opacity" from="0" to="1" begin="0S0.end+0.00s" dur="1.00s" fill="freeze"/><animate attributeName="opacity" from="1" to="0" begin="0E0.end" dur="0.01s" fill="freeze"/></g><g id="node5" class="node" style="opacity:0"><ellipse fill="none" stroke="#7b7b7b" cx="126" cy="-162" rx="18" ry="18"/><text text-anchor="middle" x="126" y="-158.3" font-family="Times New Roman,serif" font-size="14.00">3</text><animate attributeName="opacity" from="0" to="1" begin="0S0.end+0.00s" dur="1.00s" fill="freeze"/><animate attributeName="opacity" from="1" to="0" begin="0E0.end" dur="0.01s" fill="freeze"/></g><g id="node6" class="node" style="opacity:0"><ellipse fill="none" stroke="#7b7b7b" cx="180" cy="-90" rx="18" ry="18"/><text text-anchor="middle" x="180" y="-86.3" font-family="Times New Roman,serif" font-size="14.00">7</text><animate attributeName="opacity" from="0" to="1" begin="0S0.end+0.00s" dur="1.00s" fill="freeze"/><animate attributeName="opacity" from="1" to="0" begin="0E0.end" dur="0.01s" fill="freeze"/></g><g id="node7" class="node" style="opacity:0"><ellipse fill="none" stroke="#7b7b7b" cx="99" cy="-234" rx="18" ry="18"/><text text-anchor="middle" x="99" y="-230.3" font-family="Times New Roman,serif" font-size="14.00">1</text><animate attributeName="opacity" from="0" to="1" begin="0S0.end+0.00s" dur="1.00s" fill="freeze"/><animate attributeName="opacity" from="1" to="0" begin="0E0.end" dur="0.01s" fill="freeze"/></g><g id="node8" class="node" style="opacity:0"><ellipse fill="none" stroke="#7b7b7b" cx="126" cy="-90" rx="18" ry="18"/><text text-anchor="middle" x="126" y="-86.3" font-family="Times New Roman,serif" font-size="14.00">6</text><animate attributeName="opacity" from="0" to="1" begin="0S0.end+0.00s" dur="1.00s" fill="freeze"/><animate attributeName="opacity" from="1" to="0" begin="0E0.end" dur="0.01s" fill="freeze"/></g><g id="node9" class="node" style="opacity:0"><ellipse fill="none" stroke="#7b7b7b" cx="72" cy="-162" rx="18" ry="18"/><text text-anchor="middle" x="72" y="-158.3" font-family="Times New Roman,serif" font-size="14.00">2</text><animate attributeName="opacity" from="0" to="1" begin="0S0.end+0.00s" dur="1.00s" fill="freeze"/><animate attributeName="opacity" from="1" to="0" begin="0E0.end" dur="0.01s" fill="freeze"/></g><g id="edge1" class="edge" style="opacity:0"><path fill="none" stroke="#7b7b7b" d="M92.74,-216.76C89.5,-208.37 85.47,-197.93 81.83,-188.5"/><polygon fill="#7b7b7b" stroke="#7b7b7b" points="78.23,-179.15 86.03,-186.86 80.03,-183.81 81.83,-188.48 81.83,-188.48 81.83,-188.48 80.03,-183.81 77.63,-190.1 78.23,-179.15 78.23,-179.15"/><animate attributeName="opacity" from="0" to="1" begin="0S0.end+0.00s" dur="1.00s" fill="freeze"/><animate attributeName="opacity" from="1" to="0" begin="0E0.end" dur="0.01s" fill="freeze"/></g><g id="edge2" class="edge" style="opacity:0"><path fill="none" stroke="#7b7b7b" d="M105.26,-216.76C108.5,-208.37 112.53,-197.93 116.17,-188.5"/><polygon fill="#7b7b7b" stroke="#7b7b7b" points="119.77,-179.15 120.37,-190.1 117.97,-183.81 116.17,-188.48 116.17,-188.48 116.17,-188.48 117.97,-183.81 111.97,-186.86 119.77,-179.15 119.77,-179.15"/><animate attributeName="opacity" from="0" to="1" begin="0S0.end+0.00s" dur="1.00s" fill="freeze"/><animate attributeName="opacity" from="1" to="0" begin="0E0.end" dur="0.01s" fill="freeze"/></g><g id="edge3" class="edge" style="opacity:0"><path fill="none" stroke="#7b7b7b" d="M61.33,-147.17C53.79,-137.39 43.52,-124.08 34.87,-112.87"/><polygon fill="#7b7b7b" stroke="#7b7b7b" points="28.65,-104.8 38.32,-109.97 31.7,-108.76 34.75,-112.72 34.75,-112.72 34.75,-112.72 31.7,-108.76 31.19,-115.47 28.65,-104.8 28.65,-104.8"/><animate attributeName="opacity" from="0" to="1" begin="0S0.end+0.00s" dur="1.00s" fill="freeze"/><animate attributeName="opacity" from="1" to="0" begin="0E0.end" dur="0.01s" fill="freeze"/></g><g id="edge4" class="edge" style="opacity:0"><path fill="none" stroke="#7b7b7b" d="M72,-143.7C72,-135.98 72,-126.71 72,-118.11"/><polygon fill="#7b7b7b" stroke="#7b7b7b" points="72,-108.1 76.5,-118.1 72,-113.1 72,-118.1 72,-118.1 72,-118.1 72,-113.1 67.5,-118.1 72,-108.1 72,-108.1"/><animate attributeName="opacity" from="0" to="1" begin="0S0.end+0.00s" dur="1.00s" fill="freeze"/><animate attributeName="opacity" from="1" to="0" begin="0E0.end" dur="0.01s" fill="freeze"/></g><g id="edge5" class="edge" style="opacity:0"><path fill="none" stroke="#7b7b7b" d="M65.74,-72.76C62.5,-64.37 58.47,-53.93 54.83,-44.5"/><polygon fill="#7b7b7b" stroke="#7b7b7b" points="51.23,-35.15 59.03,-42.86 53.03,-39.81 54.83,-44.48 54.83,-44.48 54.83,-44.48 53.03,-39.81 50.63,-46.1 51.23,-35.15 51.23,-35.15"/><animate attributeName="opacity" from="0" to="1" begin="0S0.end+0.00s" dur="1.00s" fill="freeze"/><animate attributeName="opacity" from="1" to="0" begin="0E0.end" dur="0.01s" fill="freeze"/></g><g id="edge6" class="edge" style="opacity:0"><path fill="none" stroke="#7b7b7b" d="M78.26,-72.76C81.5,-64.37 85.53,-53.93 89.17,-44.5"/><polygon fill="#7b7b7b" stroke="#7b7b7b" points="92.77,-35.15 93.37,-46.1 90.97,-39.81 89.17,-44.48 89.17,-44.48 89.17,-44.48 90.97,-39.81 84.97,-42.86 92.77,-35.15 92.77,-35.15"/><animate attributeName="opacity" from="0" to="1" begin="0S0.end+0.00s" dur="1.00s" fill="freeze"/><animate attributeName="opacity" from="1" to="0" begin="0E0.end" dur="0.01s" fill="freeze"/></g><g id="edge7" class="edge" style="opacity:0"><path fill="none" stroke="#7b7b7b" d="M126,-143.7C126,-135.98 126,-126.71 126,-118.11"/><polygon fill="#7b7b7b" stroke="#7b7b7b" points="126,-108.1 130.5,-118.1 126,-113.1 126,-118.1 126,-118.1 126,-118.1 126,-113.1 121.5,-118.1 126,-108.1 126,-108.1"/><animate attributeName="opacity" from="0" to="1" begin="0S0.end+0.00s" dur="1.00s" fill="freeze"/><animate attributeName="opacity" from="1" to="0" begin="0E0.end" dur="0.01s" fill="freeze"/></g><g id="edge8" class="edge" style="opacity:0"><path fill="none" stroke="#7b7b7b" d="M136.67,-147.17C144.21,-137.39 154.48,-124.08 163.13,-112.87"/><polygon fill="#7b7b7b" stroke="#7b7b7b" points="169.35,-104.8 166.81,-115.47 166.3,-108.76 163.25,-112.72 163.25,-112.72 163.25,-112.72 166.3,-108.76 159.68,-109.97 169.35,-104.8 169.35,-104.8"/><animate attributeName="opacity" from="0" to="1" begin="0S0.end+0.00s" dur="1.00s" fill="freeze"/><animate attributeName="opacity" from="1" to="0" begin="0E0.end" dur="0.01s" fill="freeze"/></g></g><animate attributeName="opacity" id="0S0" from="0" to="1" begin="0s;0E2.end+0s" dur="0.01s" fill="freeze"/><animate attributeName="opacity" id="0E0" begin="0S0.begin+1.5s" from="1" to="0" dur="0.01s" fill="freeze"/></g><g class="frame" style="opacity:0" transform="translate(5,5.0)"><g id="graph0" class="graph" transform="scale(1 1) rotate(0) translate(4 256)"><polygon fill="transparent" stroke="transparent" points="-4,4 -4,-256 202,-256 202,4 -4,4"/><g id="node1" class="node"><ellipse fill="#ffffff" stroke="#7b7b7b" cx="99" cy="-234" rx="18" ry="18"/><text text-anchor="middle" x="99" y="-230.3" font-family="Times New Roman,serif" font-size="14.00" fill="#000000">1</text></g><g id="node2" class="node"><ellipse fill="#ffffff" stroke="#7b7b7b" cx="72" cy="-162" rx="18" ry="18"/><text text-anchor="middle" x="72" y="-158.3" font-family="Times New Roman,serif" font-size="14.00" fill="#000000">2</text></g><g id="edge2" class="edge"><path fill="none" stroke="#7b7b7b" d="M92.74,-216.76C89.5,-208.37 85.47,-197.93 81.83,-188.5"/><polygon fill="#7b7b7b" stroke="#7b7b7b" points="78.23,-179.15 86.03,-186.86 80.03,-183.81 81.83,-188.48 81.83,-188.48 81.83,-188.48 80.03,-183.81 77.63,-190.1 78.23,-179.15 78.23,-179.15"/></g><g id="node7" class="node"><ellipse fill="#ffffff" stroke="#7b7b7b" cx="126" cy="-162" rx="18" ry="18"/><text text-anchor="middle" x="126" y="-158.3" font-family="Times New Roman,serif" font-size="14.00" fill="#000000">3</text></g><g id="edge1" class="edge"><path fill="none" stroke="#7b7b7b" d="M105.26,-216.76C108.5,-208.37 112.53,-197.93 116.17,-188.5"/><polygon fill="#7b7b7b" stroke="#7b7b7b" points="119.77,-179.15 120.37,-190.1 117.97,-183.81 116.17,-188.48 116.17,-188.48 116.17,-188.48 117.97,-183.81 111.97,-186.86 119.77,-179.15 119.77,-179.15"/></g><g id="node3" class="node"><ellipse fill="#ffffff" stroke="#7b7b7b" cx="18" cy="-90" rx="18" ry="18"/><text text-anchor="middle" x="18" y="-86.3" font-family="Times New Roman,serif" font-size="14.00" fill="#000000">4</text></g><g id="edge4" class="edge"><path fill="none" stroke="#7b7b7b" d="M61.33,-147.17C53.79,-137.39 43.52,-124.08 34.87,-112.87"/><polygon fill="#7b7b7b" stroke="#7b7b7b" points="28.65,-104.8 38.32,-109.97 31.7,-108.76 34.75,-112.72 34.75,-112.72 34.75,-112.72 31.7,-108.76 31.19,-115.47 28.65,-104.8 28.65,-104.8"/></g><g id="node4" class="node"><ellipse fill="#ffffff" stroke="#7b7b7b" cx="72" cy="-90" rx="18" ry="18"/><text text-anchor="middle" x="72" y="-86.3" font-family="Times New Roman,serif" font-size="14.00" fill="#000000">5</text></g><g id="edge3" class="edge"><path fill="none" stroke="#7b7b7b" d="M72,-143.7C72,-135.98 72,-126.71 72,-118.11"/><polygon fill="#7b7b7b" stroke="#7b7b7b" points="72,-108.1 76.5,-118.1 72,-113.1 72,-118.1 72,-118.1 72,-118.1 72,-113.1 67.5,-118.1 72,-108.1 72,-108.1"/></g><g id="node5" class="node"><ellipse fill="#ffffff" stroke="#7b7b7b" cx="45" cy="-18" rx="18" ry="18"/><text text-anchor="middle" x="45" y="-14.3" font-family="Times New Roman,serif" font-size="14.00" fill="#000000">8</text><animateMotion path="m0,0 l54.00,0.00" begin="0S1.end+0.60s" dur="1.44s" fill="freeze"/><animateMotion path="m0,0 l0,0" begin="0E1.end" dur="0.01s" fill="freeze"/></g><g id="edge6" class="edge" style="opacity:1"><path fill="none" stroke="#7b7b7b" d="M65.74,-72.76C62.5,-64.37 58.47,-53.93 54.83,-44.5"/><polygon fill="#7b7b7b" stroke="#7b7b7b" points="51.23,-35.15 59.03,-42.86 53.03,-39.81 54.83,-44.48 54.83,-44.48 54.83,-44.48 53.03,-39.81 50.63,-46.1 51.23,-35.15 51.23,-35.15"/><animate attributeName="opacity" from="1" to="0" begin="0S1.end+0.00s" dur="0.60s" fill="freeze"/><animate attributeName="opacity" from="0" to="1" begin="0E1.end" dur="0.01s" fill="freeze"/></g><g id="node6" class="node"><ellipse fill="#ffffff" stroke="#7b7b7b" cx="99" cy="-18" rx="18" ry="18"/><text text-anchor="middle" x="99" y="-14.3" font-family="Times New Roman,serif" font-size="14.00" fill="#000000">9</text><animateMotion path="m0,0 l-54.00,0.00" begin="0S1.end+0.60s" dur="1.44s" fill="freeze"/><animateMotion path="m0,0 l0,0" begin="0E1.end" dur="0.01s" fill="freeze"/></g><g id="edge5" class="edge" style="opacity:1"><path fill="none" stroke="#7b7b7b" d="M78.26,-72.76C81.5,-64.37 85.53,-53.93 89.17,-44.5"/><polygon fill="#7b7b7b" stroke="#7b7b7b" points="92.77,-35.15 93.37,-46.1 90.97,-39.81 89.17,-44.48 89.17,-44.48 89.17,-44.48 90.97,-39.81 84.97,-42.86 92.77,-35.15 92.77,-35.15"/><animate attributeName="opacity" from="1" to="0" begin="0S1.end+0.00s" dur="0.60s" fill="freeze"/><animate attributeName="opacity" from="0" to="1" begin="0E1.end" dur="0.01s" fill="freeze"/></g><g id="node8" class="node"><ellipse fill="#ffffff" stroke="#7b7b7b" cx="126" cy="-90" rx="18" ry="18"/><text text-anchor="middle" x="126" y="-86.3" font-family="Times New Roman,serif" font-size="14.00" fill="#000000">6</text></g><g id="edge8" class="edge"><path fill="none" stroke="#7b7b7b" d="M126,-143.7C126,-135.98 126,-126.71 126,-118.11"/><polygon fill="#7b7b7b" stroke="#7b7b7b" points="126,-108.1 130.5,-118.1 126,-113.1 126,-118.1 126,-118.1 126,-118.1 126,-113.1 121.5,-118.1 126,-108.1 126,-108.1"/></g><g id="node9" class="node"><ellipse fill="#ffffff" stroke="#7b7b7b" cx="180" cy="-90" rx="18" ry="18"/><text text-anchor="middle" x="180" y="-86.3" font-family="Times New Roman,serif" font-size="14.00" fill="#000000">7</text></g><g id="edge7" class="edge"><path fill="none" stroke="#7b7b7b" d="M136.67,-147.17C144.21,-137.39 154.48,-124.08 163.13,-112.87"/><polygon fill="#7b7b7b" stroke="#7b7b7b" points="169.35,-104.8 166.81,-115.47 166.3,-108.76 163.25,-112.72 163.25,-112.72 163.25,-112.72 166.3,-108.76 159.68,-109.97 169.35,-104.8 169.35,-104.8"/></g></g><g id="graph1" class="graph" transform="scale(1 1) rotate(0) translate(4 256)"><g id="edge5" class="edge" style="opacity:0"><path fill="none" stroke="#7b7b7b" d="M65.74,-72.76C62.5,-64.37 58.47,-53.93 54.83,-44.5"/><polygon fill="#7b7b7b" stroke="#7b7b7b" points="51.23,-35.15 59.03,-42.86 53.03,-39.81 54.83,-44.48 54.83,-44.48 54.83,-44.48 53.03,-39.81 50.63,-46.1 51.23,-35.15 51.23,-35.15"/><animate attributeName="opacity" from="0" to="1" begin="0S1.end+2.04s" dur="0.96s" fill="freeze"/><animate attributeName="opacity" from="1" to="0" begin="0E1.end" dur="0.01s" fill="freeze"/></g><g id="edge6" class="edge" style="opacity:0"><path fill="none" stroke="#7b7b7b" d="M78.26,-72.76C81.5,-64.37 85.53,-53.93 89.17,-44.5"/><polygon fill="#7b7b7b" stroke="#7b7b7b" points="92.77,-35.15 93.37,-46.1 90.97,-39.81 89.17,-44.48 89.17,-44.48 89.17,-44.48 90.97,-39.81 84.97,-42.86 92.77,-35.15 92.77,-35.15"/><animate attributeName="opacity" from="0" to="1" begin="0S1.end+2.04s" dur="0.96s" fill="freeze"/><animate attributeName="opacity" from="1" to="0" begin="0E1.end" dur="0.01s" fill="freeze"/></g></g><animate attributeName="opacity" id="0S1" from="0" to="1" begin="0E0.begin" dur="0.01s" fill="freeze"/><animate attributeName="opacity" id="0E1" begin="0S1.begin+3.5s" from="1" to="0" dur="0.01s" fill="freeze"/></g><g class="frame" style="opacity:0" transform="translate(5,5.0)"><g id="graph0" class="graph" transform="scale(1 1) rotate(0) translate(4 256)"><polygon fill="transparent" stroke="transparent" points="-4,4 -4,-256 202,-256 202,4 -4,4"/><g id="node1" class="node"><ellipse fill="#ffffff" stroke="#7b7b7b" cx="99" cy="-234" rx="18" ry="18"/><text text-anchor="middle" x="99" y="-230.3" font-family="Times New Roman,serif" font-size="14.00" fill="#000000">1</text></g><g id="node2" class="node"><ellipse fill="#ffffff" stroke="#7b7b7b" cx="72" cy="-162" rx="18" ry="18"/><text text-anchor="middle" x="72" y="-158.3" font-family="Times New Roman,serif" font-size="14.00" fill="#000000">2</text></g><g id="edge2" class="edge"><path fill="none" stroke="#7b7b7b" d="M92.74,-216.76C89.5,-208.37 85.47,-197.93 81.83,-188.5"/><polygon fill="#7b7b7b" stroke="#7b7b7b" points="78.23,-179.15 86.03,-186.86 80.03,-183.81 81.83,-188.48 81.83,-188.48 81.83,-188.48 80.03,-183.81 77.63,-190.1 78.23,-179.15 78.23,-179.15"/></g><g id="node7" class="node"><ellipse fill="#ffffff" stroke="#7b7b7b" cx="126" cy="-162" rx="18" ry="18"/><text text-anchor="middle" x="126" y="-158.3" font-family="Times New Roman,serif" font-size="14.00" fill="#000000">3</text></g><g id="edge1" class="edge"><path fill="none" stroke="#7b7b7b" d="M105.26,-216.76C108.5,-208.37 112.53,-197.93 116.17,-188.5"/><polygon fill="#7b7b7b" stroke="#7b7b7b" points="119.77,-179.15 120.37,-190.1 117.97,-183.81 116.17,-188.48 116.17,-188.48 116.17,-188.48 117.97,-183.81 111.97,-186.86 119.77,-179.15 119.77,-179.15"/></g><g id="node3" class="node"><ellipse fill="#ffffff" stroke="#7b7b7b" cx="18" cy="-90" rx="18" ry="18"/><text text-anchor="middle" x="18" y="-86.3" font-family="Times New Roman,serif" font-size="14.00" fill="#000000">4</text></g><g id="edge4" class="edge"><path fill="none" stroke="#7b7b7b" d="M61.33,-147.17C53.79,-137.39 43.52,-124.08 34.87,-112.87"/><polygon fill="#7b7b7b" stroke="#7b7b7b" points="28.65,-104.8 38.32,-109.97 31.7,-108.76 34.75,-112.72 34.75,-112.72 34.75,-112.72 31.7,-108.76 31.19,-115.47 28.65,-104.8 28.65,-104.8"/></g><g id="node4" class="node"><ellipse fill="#ffffff" stroke="#7b7b7b" cx="72" cy="-90" rx="18" ry="18"/><text text-anchor="middle" x="72" y="-86.3" font-family="Times New Roman,serif" font-size="14.00" fill="#000000">5</text><animateMotion path="m0,0 l54.00,0.00" begin="0S2.end+0.60s" dur="1.44s" fill="freeze"/><animateMotion path="m0,0 l0,0" begin="0E2.end" dur="0.01s" fill="freeze"/></g><g id="edge3" class="edge" style="opacity:1"><path fill="none" stroke="#7b7b7b" d="M72,-143.7C72,-135.98 72,-126.71 72,-118.11"/><polygon fill="#7b7b7b" stroke="#7b7b7b" points="72,-108.1 76.5,-118.1 72,-113.1 72,-118.1 72,-118.1 72,-118.1 72,-113.1 67.5,-118.1 72,-108.1 72,-108.1"/><animate attributeName="opacity" from="1" to="0" begin="0S2.end+0.00s" dur="0.60s" fill="freeze"/><animate attributeName="opacity" from="0" to="1" begin="0E2.end" dur="0.01s" fill="freeze"/></g><g id="node5" class="node"><ellipse fill="#ffffff" stroke="#7b7b7b" cx="45" cy="-18" rx="18" ry="18"/><text text-anchor="middle" x="45" y="-14.3" font-family="Times New Roman,serif" font-size="14.00" fill="#000000">9</text><animateMotion path="m0,0 l54.00,0.00" begin="0S2.end+0.60s" dur="1.44s" fill="freeze"/><animateMotion path="m0,0 l0,0" begin="0E2.end" dur="0.01s" fill="freeze"/></g><g id="edge6" class="edge" style="opacity:1"><path fill="none" stroke="#7b7b7b" d="M65.74,-72.76C62.5,-64.37 58.47,-53.93 54.83,-44.5"/><polygon fill="#7b7b7b" stroke="#7b7b7b" points="51.23,-35.15 59.03,-42.86 53.03,-39.81 54.83,-44.48 54.83,-44.48 54.83,-44.48 53.03,-39.81 50.63,-46.1 51.23,-35.15 51.23,-35.15"/><animate attributeName="opacity" from="1" to="0" begin="0S2.end+0.00s" dur="0.60s" fill="freeze"/><animate attributeName="opacity" from="0" to="1" begin="0E2.end" dur="0.01s" fill="freeze"/></g><g id="node6" class="node"><ellipse fill="#ffffff" stroke="#7b7b7b" cx="99" cy="-18" rx="18" ry="18"/><text text-anchor="middle" x="99" y="-14.3" font-family="Times New Roman,serif" font-size="14.00" fill="#000000">8</text><animateMotion path="m0,0 l54.00,0.00" begin="0S2.end+0.60s" dur="1.44s" fill="freeze"/><animateMotion path="m0,0 l0,0" begin="0E2.end" dur="0.01s" fill="freeze"/></g><g id="edge5" class="edge" style="opacity:1"><path fill="none" stroke="#7b7b7b" d="M78.26,-72.76C81.5,-64.37 85.53,-53.93 89.17,-44.5"/><polygon fill="#7b7b7b" stroke="#7b7b7b" points="92.77,-35.15 93.37,-46.1 90.97,-39.81 89.17,-44.48 89.17,-44.48 89.17,-44.48 90.97,-39.81 84.97,-42.86 92.77,-35.15 92.77,-35.15"/><animate attributeName="opacity" from="1" to="0" begin="0S2.end+0.00s" dur="0.60s" fill="freeze"/><animate attributeName="opacity" from="0" to="1" begin="0E2.end" dur="0.01s" fill="freeze"/></g><g id="node8" class="node"><ellipse fill="#ffffff" stroke="#7b7b7b" cx="126" cy="-90" rx="18" ry="18"/><text text-anchor="middle" x="126" y="-86.3" font-family="Times New Roman,serif" font-size="14.00" fill="#000000">6</text><animateMotion path="m0,0 l-54.00,0.00" begin="0S2.end+0.60s" dur="1.44s" fill="freeze"/><animateMotion path="m0,0 l0,0" begin="0E2.end" dur="0.01s" fill="freeze"/></g><g id="edge8" class="edge" style="opacity:1"><path fill="none" stroke="#7b7b7b" d="M126,-143.7C126,-135.98 126,-126.71 126,-118.11"/><polygon fill="#7b7b7b" stroke="#7b7b7b" points="126,-108.1 130.5,-118.1 126,-113.1 126,-118.1 126,-118.1 126,-118.1 126,-113.1 121.5,-118.1 126,-108.1 126,-108.1"/><animate attributeName="opacity" from="1" to="0" begin="0S2.end+0.00s" dur="0.60s" fill="freeze"/><animate attributeName="opacity" from="0" to="1" begin="0E2.end" dur="0.01s" fill="freeze"/></g><g id="node9" class="node"><ellipse fill="#ffffff" stroke="#7b7b7b" cx="180" cy="-90" rx="18" ry="18"/><text text-anchor="middle" x="180" y="-86.3" font-family="Times New Roman,serif" font-size="14.00" fill="#000000">7</text></g><g id="edge7" class="edge"><path fill="none" stroke="#7b7b7b" d="M136.67,-147.17C144.21,-137.39 154.48,-124.08 163.13,-112.87"/><polygon fill="#7b7b7b" stroke="#7b7b7b" points="169.35,-104.8 166.81,-115.47 166.3,-108.76 163.25,-112.72 163.25,-112.72 163.25,-112.72 166.3,-108.76 159.68,-109.97 169.35,-104.8 169.35,-104.8"/></g></g><g id="graph1" class="graph" transform="scale(1 1) rotate(0) translate(4 256)"><g id="edge9" class="edge" style="opacity:0"><path fill="none" stroke="#7b7b7b" d="M72,-143.7C72,-135.98 72,-126.71 72,-118.11"/><polygon fill="#7b7b7b" stroke="#7b7b7b" points="72,-108.1 76.5,-118.1 72,-113.1 72,-118.1 72,-118.1 72,-118.1 72,-113.1 67.5,-118.1 72,-108.1 72,-108.1"/><animate attributeName="opacity" from="0" to="1" begin="0S2.end+2.04s" dur="0.96s" fill="freeze"/><animate attributeName="opacity" from="1" to="0" begin="0E2.end" dur="0.01s" fill="freeze"/></g><g id="edge10" class="edge" style="opacity:0"><path fill="none" stroke="#7b7b7b" d="M126,-143.7C126,-135.98 126,-126.71 126,-118.11"/><polygon fill="#7b7b7b" stroke="#7b7b7b" points="126,-108.1 130.5,-118.1 126,-113.1 126,-118.1 126,-118.1 126,-118.1 126,-113.1 121.5,-118.1 126,-108.1 126,-108.1"/><animate attributeName="opacity" from="0" to="1" begin="0S2.end+2.04s" dur="0.96s" fill="freeze"/><animate attributeName="opacity" from="1" to="0" begin="0E2.end" dur="0.01s" fill="freeze"/></g><g id="edge6" class="edge" style="opacity:0"><path fill="none" stroke="#7b7b7b" d="M119.74,-72.76C116.5,-64.37 112.47,-53.93 108.83,-44.5"/><polygon fill="#7b7b7b" stroke="#7b7b7b" points="105.23,-35.15 113.03,-42.86 107.03,-39.81 108.83,-44.48 108.83,-44.48 108.83,-44.48 107.03,-39.81 104.63,-46.1 105.23,-35.15 105.23,-35.15"/><animate attributeName="opacity" from="0" to="1" begin="0S2.end+2.04s" dur="0.96s" fill="freeze"/><animate attributeName="opacity" from="1" to="0" begin="0E2.end" dur="0.01s" fill="freeze"/></g><g id="edge5" class="edge" style="opacity:0"><path fill="none" stroke="#7b7b7b" d="M132.26,-72.76C135.5,-64.37 139.53,-53.93 143.17,-44.5"/><polygon fill="#7b7b7b" stroke="#7b7b7b" points="146.77,-35.15 147.37,-46.1 144.97,-39.81 143.17,-44.48 143.17,-44.48 143.17,-44.48 144.97,-39.81 138.97,-42.86 146.77,-35.15 146.77,-35.15"/><animate attributeName="opacity" from="0" to="1" begin="0S2.end+2.04s" dur="0.96s" fill="freeze"/><animate attributeName="opacity" from="1" to="0" begin="0E2.end" dur="0.01s" fill="freeze"/></g></g><animate attributeName="opacity" id="0S2" from="0" to="1" begin="0E1.begin" dur="0.01s" fill="freeze"/><animate attributeName="opacity" id="0E2" begin="0S2.begin+3.5s" from="1" to="0" dur="0.01s" fill="freeze"/></g><g><animate attributeName="opacity" begin="1S3.begin" from="1" to="0" dur="0.01s" fill="freeze"/><animate attributeName="opacity" from="0" to="1" begin="1E3.end" dur="0.01s" fill="freeze"/></g></a></svg>