<?xml version="1.0" ?><svg xmlns="http://www.w3.org/2000/svg" xmlns:xlink="http://www.w3.org/1999/xlink" width="271pt" height="311pt" viewBox="0.00 0.00 271.00 311.00"><style>.txt { alignment-baseline:middle; text-anchor:middle; font-family:Times,serif; }</style><a xlink:href="https://zjl9959.github.io/algviz/"><g class="frame" style="opacity:0" transform="translate(5,245.0)"><g id="0"><rect x="3.00" y="6.00" width="40.00" height="40.00" rx="4.00" ry="4.00" fill="#ffffff" stroke="#7b7b7b"/><text class="txt" x="23.00" y="26.00" font-size="16.00" fill="#000000">A</text></g><g id="1"><rect x="46.00" y="6.00" width="40.00" height="40.00" rx="4.00" ry="4.00" fill="#ffc0cb" stroke="#7b7b7b"/><text class="txt" x="66.00" y="26.00" font-size="16.00" fill="#000000">L</text></g><g id="2"><rect x="89.00" y="6.00" width="40.00" height="40.00" rx="4.00" ry="4.00" fill="#ffffff" stroke="#7b7b7b"/><text class="txt" x="109.00" y="26.00" font-size="16.00" fill="#000000">G</text></g><g id="3"><rect x="132.00" y="6.00" width="40.00" height="40.00" rx="4.00" ry="4.00" fill="#ffffff" stroke="#7b7b7b"/><text class="txt" x="152.00" y="26.00" font-size="16.00" fill="#000000">V</text></g><g id="4"><rect x="175.00" y="6.00" width="40.00" height="40.00" rx="4.00" ry="4.00" fill="#ffffff" stroke="#7b7b7b"/><text class="txt" x="195.00" y="26.00" font-size="16.00" fill="#000000">I</text></g><g id="5"><rect x="218.00" y="6.00" width="40.00" height="40.00" rx="4.00" ry="4.00" fill="#d2b48c" stroke="#7b7b7b"/><text class="txt" x="238.00" y="26.00" font-size="16.00" fill="#000000">Z</text></g><g id="6"><text x="20.00" y="58.00" font-size="12.00" font-family="Times,serif" fill="#7b7b7b">0</text></g><g id="7"><text x="63.00" y="58.00" font-size="12.00" font-family="Times,serif" fill="#7b7b7b">1</text></g><g id="8"><text x="106.00" y="58.00" font-size="12.00" font-family="Times,serif" fill="#7b7b7b">2</text></g><g id="9"><text x="149.00" y="58.00" font-size="12.00" font-family="Times,serif" fill="#7b7b7b">3</text></g><g id="10"><text x="192.00" y="58.00" font-size="12.00" font-family="Times,serif" fill="#7b7b7b">4</text></g><g id="11"><text x="235.00" y="58.00" font-size="12.00" font-family="Times,serif" fill="#7b7b7b">5</text></g><animate attributeName="opacity" id="0S0" from="0" to="1" begin="0s;0E2.end+0s" dur="0.01s" fill="freeze"/><animate attributeName="opacity" id="0E0" begin="0S0.begin+2.5s" from="1" to="0" dur="0.01s" fill="freeze"/></g><g class="frame" style="opacity:0" transform="translate(5,245.0)"><g id="0"><rect x="3.00" y="6.00" width="40.00" height="40.00" rx="4.00" ry="4.00" fill="#ffffff" stroke="#7b7b7b"/><text class="txt" x="23.00" y="26.00" font-size="16.00" fill="#000000">A</text></g><g id="1"><rect x="46.00" y="6.00" width="40.00" height="40.00" rx="4.00" ry="4.00" fill="#ffc0cb" stroke="#7b7b7b"/><text class="txt" x="66.00" y="26.00" font-size="16.00" fill="#000000">L</text><animateMotion path="m0,0 l86.00,0.00" begin="0S1.end+0.00s" dur="1.20s" fill="freeze"/><animateMotion path="m0,0 l0,0" begin="0E1.end" dur="0.01s" fill="freeze"/></g><g id="2"><rect x="89.00" y="6.00" width="40.00" height="40.00" rx="4.00" ry="4.00" fill="#ffffff" stroke="#7b7b7b"/><text class="txt" x="109.00" y="26.00" font-size="16.00" fill="#000000">G</text></g><g id="3"><rect x="132.00" y="6.00" width="40.00" height="40.00" rx="4.00" ry="4.00" fill="#ffffff" stroke="#7b7b7b"/><text class="txt" x="152.00" y="26.00" font-size="16.00" fill="#000000">V</text><animateMotion path="m0,0 l-86.00,0.00" begin="0S1.end+0.00s" dur="1.20s" fill="freeze"/><animateMotion path="m0,0 l0,0" begin="0E1.end" dur="0.01s" fill="freeze"/></g><g id="4"><rect x="175.00" y="6.00" width="40.00" height="40.00" rx="4.00" ry="4.00" fill="#ffffff" stroke="#7b7b7b"/><text class="txt" x="195.00" y="26.00" font-size="16.00" fill="#000000">I</text></g><g id="5"><rect x="218.00" y="6.00" width="40.00" height="40.00" rx="4.00" ry="4.00" fill="#d2b48c" stroke="#7b7b7b"/><text class="txt" x="238.00" y="26.00" font-size="16.00" fill="#000000">Z</text></g><g id="6"><text x="20.00" y="58.00" font-size="12.00" font-family="Times,serif" fill="#7b7b7b">0</text></g><g id="7"><text x="63.00" y="58.00" font-size="12.00" font-family="Times,serif" fill="#7b7b7b">1</text></g><g id="8"><text x="106.00" y="58.00" font-size="12.00" font-family="Times,serif" fill="#7b7b7b">2</text></g><g id="9"><text x="149.00" y="58.00" font-size="12.00" font-family="Times,serif" fill="#7b7b7b">3</text></g><g id="10"><text x="192.00" y="58.00" font-size="12.00" font-family="Times,serif" fill="#7b7b7b">4</text></g><g id="11"><text x="235.00" y="58.00" font-size="12.00" font-family="Times,serif" fill="#7b7b7b">5</text></g><animate attributeName="opacity" id="0S1" from="0" to="1" begin="0E0.begin" dur="0.01s" fill="freeze"/><animate attributeName="opacity" id="0E1" begin="0S1.begin+2.5s" from="1" to="0" dur="0.01s" fill="freeze"/></g><g class="frame" style="opacity:0" transform="translate(5,245.0)"><g id="0"><rect x="3.00" y="6.00" width="40.00" height="40.00" rx="4.00" ry="4.00" fill="#ffffff" stroke="#7b7b7b"/><text class="txt" x="23.00" y="26.00" font-size="16.00" fill="#000000">A</text></g><g id="1"><rect x="132.00" y="6.00" width="40.00" height="40.00" rx="4.00" ry="4.00" fill="#ffc0cb" stroke="#7b7b7b"/><text class="txt" x="152.00" y="26.00" font-size="16.00" fill="#000000">L</text><animateMotion path="m0,0 l-86.00,0.00" begin="0S2.end+0.00s" dur="1.20s" fill="freeze"/><animateMotion path="m0,0 l0,0" begin="0E2.end" dur="0.01s" fill="freeze"/></g><g id="2"><rect x="89.00" y="6.00" width="40.00" height="40.00" rx="4.00" ry="4.00" fill="#ffffff" stroke="#7b7b7b"/><text class="txt" x="109.00" y="26.00" font-size="16.00" fill="#000000">G</text></g><g id="3"><rect x="46.00" y="6.00" width="40.00" height="40.00" rx="4.00" ry="4.00" fill="#ffffff" stroke="#7b7b7b"/><text class="txt" x="66.00" y="26.00" font-size="16.00" fill="#000000">V</text><animateMotion path="m0,0 l86.00,0.00" begin="0S2.end+0.00s" dur="1.20s" fill="freeze"/><animateMotion path="m0,0 l0,0" begin="0E2.end" dur="0.01s" fill="freeze"/></g><g id="4"><rect x="175.00" y="6.00" width="40.00" height="40.00" rx="4.00" ry="4.00" fill="#ffffff" stroke="#7b7b7b"/><text class="txt" x="195.00" y="26.00" font-size="16.00" fill="#000000">I</text></g><g id="5"><rect x="218.00" y="6.00" width="40.00" height="40.00" rx="4.00" ry="4.00" fill="#d2b48c" stroke="#7b7b7b"/><text class="txt" x="238.00" y="26.00" font-size="16.00" fill="#000000">Z</text></g><g id="6"><text x="20.00" y="58.00" font-size="12.00" font-family="Times,serif" fill="#7b7b7b">0</text></g><g id="7"><text x="63.00" y="58.00" font-size="12.00" font-family="Times,serif" fill="#7b7b7b">1</text></g><g id="8"><text x="106.00" y="58.00" font-size="12.00" font-family="Times,serif" fill="#7b7b7b">2</text></g><g id="9"><text x="149.00" y="58.00" font-size="12.00" font-family="Times,serif" fill="#7b7b7b">3</text></g><g id="10"><text x="192.00" y="58.00" font-size="12.00" font-family="Times,serif" fill="#7b7b7b">4</text></g><g id="11"><text x="235.00" y="58.00" font-size="12.00" font-family="Times,serif" fill="#7b7b7b">5</text></g><animate attributeName="opacity" id="0S2" from="0" to="1" begin="0E1.begin" dur="0.01s" fill="freeze"/><animate attributeName="opacity" id="0E2" begin="0S2.begin+2.5s" from="1" to="0" dur="0.01s" fill="freeze"/></g><g class="frame" style="opacity:0" transform="translate(5,5.0)"><g id="0"><rect x="3.00" y="167.33" width="40.00" height="32.33" rx="3.23" ry="3.23" fill="#ffffff" stroke="#7b7b7b"/><text class="txt" x="23.00" y="183.50" font-size="16.00" fill="#000000">-1</text></g><g id="1"><rect x="46.00" y="102.67" width="40.00" height="64.67" rx="4.00" ry="4.00" fill="#ffffff" stroke="#7b7b7b"/><text class="txt" x="66.00" y="135.00" font-size="16.00" fill="#000000">2</text></g><g id="2"><rect x="89.00" y="167.33" width="40.00" height="64.67" rx="4.00" ry="4.00" fill="#ffffff" stroke="#7b7b7b"/><text class="txt" x="109.00" y="199.67" font-size="16.00" fill="#000000">-2</text></g><g id="3"><rect x="132.00" y="70.33" width="40.00" height="97.00" rx="4.00" ry="4.00" fill="#ffffff" stroke="#7b7b7b"/><text class="txt" x="152.00" y="118.83" font-size="16.00" fill="#000000">3</text></g><g id="4"><rect x="175.00" y="135.00" width="40.00" height="32.33" rx="3.23" ry="3.23" fill="#ffffff" stroke="#7b7b7b"/><text class="txt" x="195.00" y="151.16" font-size="16.00" fill="#000000">1</text></g><g id="5"><rect x="218.00" y="38.00" width="40.00" height="129.33" rx="4.00" ry="4.00" fill="#ffffff" stroke="#7b7b7b"/><text class="txt" x="238.00" y="102.67" font-size="16.00" fill="#000000">4</text></g><g id="6"><polyline points="64.00,33.00 66.00,35.00 68.00,33.00" fill="none" stroke="#2874a6"/><text class="txt" x="66.00" y="26.00" font-size="14.00" fill="#2874a6">i</text><line x1="66.00" y1="35.00" stroke="#2874a6" x2="66.00" y2="34.40"/></g><g id="7"><polyline points="152.00,33.00 154.00,35.00 156.00,33.00" fill="none" stroke="#935116"/><text class="txt" x="152.00" y="10.00" font-size="14.00" fill="#935116">j</text><line x1="154.00" y1="35.00" stroke="#935116" x2="154.00" y2="18.40"/></g><animate attributeName="opacity" id="1S0" from="0" to="1" begin="0s;1E2.end+0s" dur="0.01s" fill="freeze"/><animate attributeName="opacity" id="1E0" begin="1S0.begin+2.5s" from="1" to="0" dur="0.01s" fill="freeze"/></g><g class="frame" style="opacity:0" transform="translate(5,5.0)"><g id="0"><rect x="3.00" y="167.33" width="40.00" height="32.33" rx="3.23" ry="3.23" fill="#ffffff" stroke="#7b7b7b"/><text class="txt" x="23.00" y="183.50" font-size="16.00" fill="#000000">-1</text></g><g id="1"><rect x="46.00" y="102.67" width="40.00" height="64.67" rx="4.00" ry="4.00" fill="#ffffff" stroke="#7b7b7b"/><text class="txt" x="66.00" y="135.00" font-size="16.00" fill="#000000">2</text><animateMotion path="m0,0 l86.00,0.00" begin="1S1.end+0.00s" dur="1.20s" fill="freeze"/><animateMotion path="m0,0 l0,0" begin="1E1.end" dur="0.01s" fill="freeze"/></g><g id="2"><rect x="89.00" y="167.33" width="40.00" height="64.67" rx="4.00" ry="4.00" fill="#ffffff" stroke="#7b7b7b"/><text class="txt" x="109.00" y="199.67" font-size="16.00" fill="#000000">-2</text></g><g id="3"><rect x="132.00" y="70.33" width="40.00" height="97.00" rx="4.00" ry="4.00" fill="#ffffff" stroke="#7b7b7b"/><text class="txt" x="152.00" y="118.83" font-size="16.00" fill="#000000">3</text><animateMotion path="m0,0 l-86.00,0.00" begin="1S1.end+0.00s" dur="1.20s" fill="freeze"/><animateMotion path="m0,0 l0,0" begin="1E1.end" dur="0.01s" fill="freeze"/></g><g id="4"><rect x="175.00" y="135.00" width="40.00" height="32.33" rx="3.23" ry="3.23" fill="#ffffff" stroke="#7b7b7b"/><text class="txt" x="195.00" y="151.16" font-size="16.00" fill="#000000">1</text></g><g id="5"><rect x="218.00" y="38.00" width="40.00" height="129.33" rx="4.00" ry="4.00" fill="#ffffff" stroke="#7b7b7b"/><text class="txt" x="238.00" y="102.67" font-size="16.00" fill="#000000">4</text></g><g id="6"><polyline points="64.00,33.00 66.00,35.00 68.00,33.00" fill="none" stroke="#2874a6"/><text class="txt" x="66.00" y="26.00" font-size="14.00" fill="#2874a6">i</text><line x1="66.00" y1="35.00" stroke="#2874a6" x2="66.00" y2="34.40"/><animateMotion path="m0,0 l86.00,0.00" begin="1S1.end+0.00s" dur="2.00s" fill="freeze"/><animateMotion path="m0,0 l0,0" begin="1E1.end" dur="0.01s" fill="freeze"/></g><g id="7"><polyline points="152.00,33.00 154.00,35.00 156.00,33.00" fill="none" stroke="#935116"/><text class="txt" x="152.00" y="10.00" font-size="14.00" fill="#935116">j</text><line x1="154.00" y1="35.00" stroke="#935116" x2="154.00" y2="18.40"/><animateMotion path="m0,0 l-86.00,0.00" begin="1S1.end+0.00s" dur="2.00s" fill="freeze"/><animateMotion path="m0,0 l0,0" begin="1E1.end" dur="0.01s" fill="freeze"/></g><animate attributeName="opacity" id="1S1" from="0" to="1" begin="1E0.begin" dur="0.01s" fill="freeze"/><animate attributeName="opacity" id="1E1" begin="1S1.begin+2.5s" from="1" to="0" dur="0.01s" fill="freeze"/></g><g class="frame" style="opacity:0" transform="translate(5,5.0)"><g id="0"><rect x="3.00" y="167.33" width="40.00" height="32.33" rx="3.23" ry="3.23" fill="#ffffff" stroke="#7b7b7b"/><text class="txt" x="23.00" y="183.50" font-size="16.00" fill="#000000">-1</text></g><g id="1"><rect x="132.00" y="102.67" width="40.00" height="64.67" rx="4.00" ry="4.00" fill="#ffffff" stroke="#7b7b7b"/><text class="txt" x="152.00" y="135.00" font-size="16.00" fill="#000000">2</text><animateMotion path="m0,0 l-86.00,0.00" begin="1S2.end+0.00s" dur="1.20s" fill="freeze"/><animateMotion path="m0,0 l0,0" begin="1E2.end" dur="0.01s" fill="freeze"/></g><g id="2"><rect x="89.00" y="167.33" width="40.00" height="64.67" rx="4.00" ry="4.00" fill="#ffffff" stroke="#7b7b7b"/><text class="txt" x="109.00" y="199.67" font-size="16.00" fill="#000000">-2</text></g><g id="3"><rect x="46.00" y="70.33" width="40.00" height="97.00" rx="4.00" ry="4.00" fill="#ffffff" stroke="#7b7b7b"/><text class="txt" x="66.00" y="118.83" font-size="16.00" fill="#000000">3</text><animateMotion path="m0,0 l86.00,0.00" begin="1S2.end+0.00s" dur="1.20s" fill="freeze"/><animateMotion path="m0,0 l0,0" begin="1E2.end" dur="0.01s" fill="freeze"/></g><g id="4"><rect x="175.00" y="135.00" width="40.00" height="32.33" rx="3.23" ry="3.23" fill="#ffffff" stroke="#7b7b7b"/><text class="txt" x="195.00" y="151.16" font-size="16.00" fill="#000000">1</text></g><g id="5"><rect x="218.00" y="38.00" width="40.00" height="129.33" rx="4.00" ry="4.00" fill="#ffffff" stroke="#7b7b7b"/><text class="txt" x="238.00" y="102.67" font-size="16.00" fill="#000000">4</text></g><g id="6"><polyline points="150.00,33.00 152.00,35.00 154.00,33.00" fill="none" stroke="#2874a6"/><text class="txt" x="152.00" y="26.00" font-size="14.00" fill="#2874a6">i</text><line x1="152.00" y1="35.00" stroke="#2874a6" x2="152.00" y2="34.40"/><animateMotion path="m0,0 l-86.00,0.00" begin="1S2.end+0.00s" dur="2.00s" fill="freeze"/><animateMotion path="m0,0 l0,0" begin="1E2.end" dur="0.01s" fill="freeze"/></g><g id="7"><polyline points="66.00,33.00 68.00,35.00 70.00,33.00" fill="none" stroke="#935116"/><text class="txt" x="66.00" y="10.00" font-size="14.00" fill="#935116">j</text><line x1="68.00" y1="35.00" stroke="#935116" x2="68.00" y2="18.40"/><animateMotion path="m0,0 l86.00,0.00" begin="1S2.end+0.00s" dur="2.00s" fill="freeze"/><animateMotion path="m0,0 l0,0" begin="1E2.end" dur="0.01s" fill="freeze"/></g><animate attributeName="opacity" id="1S2" from="0" to="1" begin="1E1.begin" dur="0.01s" fill="freeze"/><animate attributeName="opacity" id="1E2" begin="1S2.begin+2.5s" from="1" to="0" dur="0.01s" fill="freeze"/></g><g><animate attributeName="opacity" begin="2S3.begin" from="1" to="0" dur="0.01s" fill="freeze"/><animate attributeName="opacity" from="0" to="1" begin="2E3.end" dur="0.01s" fill="freeze"/><rect x="5.00" y="245.00" width="261.00" height="61.00" stroke="#C0C0C0" stroke-dasharray="1, 5" fill="none"/><rect x="5.00" y="5.00" width="261.00" height="235.00" stroke="#C0C0C0" stroke-dasharray="1, 5" fill="none"/></g></a></svg>