<?xml version="1.0" ?><svg xmlns="http://www.w3.org/2000/svg" xmlns:xlink="http://www.w3.org/1999/xlink" width="342pt" height="208pt" viewBox="0.00 0.00 342.00 208.00"><style>.txt { alignment-baseline:middle; text-anchor:middle; font-family:Times,serif; }</style><a xlink:href="https://zjl9959.github.io/algviz/"><g class="frame" style="opacity:0" transform="translate(5,5.0)"><g id="graph0" class="graph" transform="scale(1 1) rotate(0) translate(4 4)"><polygon fill="transparent" stroke="transparent" points="-4,4 -4,-4 4,-4 4,4 -4,4"/></g><g id="graph1" class="graph" transform="scale(1 1) rotate(0) translate(4 163)"><g id="node1" class="node" style="opacity:0"><ellipse fill="none" stroke="#7b7b7b" cx="90" cy="-141" rx="18" ry="18"/><text text-anchor="middle" x="90" y="-137.3" font-family="Times New Roman,serif" font-size="14.00">1</text><animate attributeName="opacity" from="0" to="1" begin="0S0.end+0.00s" dur="3.00s" fill="freeze"/><animate attributeName="opacity" from="1" to="0" begin="0E0.end" dur="0.01s" fill="freeze"/></g><g id="node2" class="node" style="opacity:0"><ellipse fill="none" stroke="#7b7b7b" cx="306" cy="-18" rx="18" ry="18"/><text text-anchor="middle" x="306" y="-14.3" font-family="Times New Roman,serif" font-size="14.00">7</text><animate attributeName="opacity" from="0" to="1" begin="0S0.end+0.00s" dur="3.00s" fill="freeze"/><animate attributeName="opacity" from="1" to="0" begin="0E0.end" dur="0.01s" fill="freeze"/></g><g id="node3" class="node" style="opacity:0"><ellipse fill="none" stroke="#7b7b7b" cx="18" cy="-64" rx="18" ry="18"/><text text-anchor="middle" x="18" y="-60.3" font-family="Times New Roman,serif" font-size="14.00">0</text><animate attributeName="opacity" from="0" to="1" begin="0S0.end+0.00s" dur="3.00s" fill="freeze"/><animate attributeName="opacity" from="1" to="0" begin="0E0.end" dur="0.01s" fill="freeze"/></g><g id="node4" class="node" style="opacity:0"><ellipse fill="none" stroke="#7b7b7b" cx="234" cy="-72" rx="18" ry="18"/><text text-anchor="middle" x="234" y="-68.3" font-family="Times New Roman,serif" font-size="14.00">3</text><animate attributeName="opacity" from="0" to="1" begin="0S0.end+0.00s" dur="3.00s" fill="freeze"/><animate attributeName="opacity" from="1" to="0" begin="0E0.end" dur="0.01s" fill="freeze"/></g><g id="node5" class="node" style="opacity:0"><ellipse fill="none" stroke="#7b7b7b" cx="306" cy="-95" rx="18" ry="18"/><text text-anchor="middle" x="306" y="-91.3" font-family="Times New Roman,serif" font-size="14.00">6</text><animate attributeName="opacity" from="0" to="1" begin="0S0.end+0.00s" dur="3.00s" fill="freeze"/><animate attributeName="opacity" from="1" to="0" begin="0E0.end" dur="0.01s" fill="freeze"/></g><g id="node6" class="node" style="opacity:0"><ellipse fill="none" stroke="#7b7b7b" cx="162" cy="-41" rx="18" ry="18"/><text text-anchor="middle" x="162" y="-37.3" font-family="Times New Roman,serif" font-size="14.00">5</text><animate attributeName="opacity" from="0" to="1" begin="0S0.end+0.00s" dur="3.00s" fill="freeze"/><animate attributeName="opacity" from="1" to="0" begin="0E0.end" dur="0.01s" fill="freeze"/></g><g id="node7" class="node" style="opacity:0"><ellipse fill="none" stroke="#7b7b7b" cx="162" cy="-95" rx="18" ry="18"/><text text-anchor="middle" x="162" y="-91.3" font-family="Times New Roman,serif" font-size="14.00">2</text><animate attributeName="opacity" from="0" to="1" begin="0S0.end+0.00s" dur="3.00s" fill="freeze"/><animate attributeName="opacity" from="1" to="0" begin="0E0.end" dur="0.01s" fill="freeze"/></g><g id="node8" class="node" style="opacity:0"><ellipse fill="none" stroke="#7b7b7b" cx="90" cy="-87" rx="18" ry="18"/><text text-anchor="middle" x="90" y="-83.3" font-family="Times New Roman,serif" font-size="14.00">4</text><animate attributeName="opacity" from="0" to="1" begin="0S0.end+0.00s" dur="3.00s" fill="freeze"/><animate attributeName="opacity" from="1" to="0" begin="0E0.end" dur="0.01s" fill="freeze"/></g><g id="edge1" class="edge" style="opacity:0"><path fill="none" stroke="#7b7b7b" d="M30.87,-77.06C41.7,-88.97 57.87,-106.75 70.41,-120.55"/><polygon fill="#7b7b7b" stroke="#7b7b7b" points="77.3,-128.13 67.24,-123.76 73.94,-124.43 70.57,-120.73 70.57,-120.73 70.57,-120.73 73.94,-124.43 73.9,-117.7 77.3,-128.13 77.3,-128.13"/><animate attributeName="opacity" from="0" to="1" begin="0S0.end+0.00s" dur="3.00s" fill="freeze"/><animate attributeName="opacity" from="1" to="0" begin="0E0.end" dur="0.01s" fill="freeze"/></g><g id="edge2" class="edge" style="opacity:0"><path fill="none" stroke="#7b7b7b" d="M35.24,-69.33C43.42,-72.02 53.55,-75.35 62.8,-78.39"/><polygon fill="#7b7b7b" stroke="#7b7b7b" points="72.37,-81.53 61.46,-82.69 67.62,-79.97 62.87,-78.41 62.87,-78.41 62.87,-78.41 67.62,-79.97 64.27,-74.14 72.37,-81.53 72.37,-81.53"/><animate attributeName="opacity" from="0" to="1" begin="0S0.end+0.00s" dur="3.00s" fill="freeze"/><animate attributeName="opacity" from="1" to="0" begin="0E0.end" dur="0.01s" fill="freeze"/></g><g id="edge3" class="edge" style="opacity:0"><path fill="none" stroke="#7b7b7b" d="M35.85,-61.27C60.08,-57.35 105.04,-50.06 133.95,-45.38"/><polygon fill="#7b7b7b" stroke="#7b7b7b" points="144.18,-43.73 135.02,-49.77 139.24,-44.52 134.3,-45.32 134.3,-45.32 134.3,-45.32 139.24,-44.52 133.58,-40.88 144.18,-43.73 144.18,-43.73"/><animate attributeName="opacity" from="0" to="1" begin="0S0.end+0.00s" dur="3.00s" fill="freeze"/><animate attributeName="opacity" from="1" to="0" begin="0E0.end" dur="0.01s" fill="freeze"/></g><g id="edge4" class="edge" style="opacity:0"><path fill="none" stroke="#7b7b7b" d="M105.5,-131.47C114.89,-125.3 127.31,-117.14 138.02,-110.1"/><polygon fill="#7b7b7b" stroke="#7b7b7b" points="146.51,-104.52 140.63,-113.77 142.34,-107.26 138.16,-110.01 138.16,-110.01 138.16,-110.01 142.34,-107.26 135.69,-106.25 146.51,-104.52 146.51,-104.52"/><animate attributeName="opacity" from="0" to="1" begin="0S0.end+0.00s" dur="3.00s" fill="freeze"/><animate attributeName="opacity" from="1" to="0" begin="0E0.end" dur="0.01s" fill="freeze"/></g><g id="edge5" class="edge" style="opacity:0"><path fill="none" stroke="#7b7b7b" d="M179.24,-89.67C187.42,-86.98 197.55,-83.65 206.8,-80.61"/><polygon fill="#7b7b7b" stroke="#7b7b7b" points="216.37,-77.47 208.27,-84.86 211.62,-79.03 206.87,-80.59 206.87,-80.59 206.87,-80.59 211.62,-79.03 205.46,-76.31 216.37,-77.47 216.37,-77.47"/><animate attributeName="opacity" from="0" to="1" begin="0S0.end+0.00s" dur="3.00s" fill="freeze"/><animate attributeName="opacity" from="1" to="0" begin="0E0.end" dur="0.01s" fill="freeze"/></g><g id="edge6" class="edge" style="opacity:0"><path fill="none" stroke="#7b7b7b" d="M251.24,-77.33C259.42,-80.02 269.55,-83.35 278.8,-86.39"/><polygon fill="#7b7b7b" stroke="#7b7b7b" points="288.37,-89.53 277.46,-90.69 283.62,-87.97 278.87,-86.41 278.87,-86.41 278.87,-86.41 283.62,-87.97 280.27,-82.14 288.37,-89.53 288.37,-89.53"/><animate attributeName="opacity" from="0" to="1" begin="0S0.end+0.00s" dur="3.00s" fill="freeze"/><animate attributeName="opacity" from="1" to="0" begin="0E0.end" dur="0.01s" fill="freeze"/></g><g id="edge7" class="edge" style="opacity:0"><path fill="none" stroke="#7b7b7b" d="M248.83,-61.33C258.61,-53.79 271.92,-43.52 283.13,-34.87"/><polygon fill="#7b7b7b" stroke="#7b7b7b" points="291.2,-28.65 286.03,-38.32 287.24,-31.7 283.28,-34.75 283.28,-34.75 283.28,-34.75 287.24,-31.7 280.53,-31.19 291.2,-28.65 291.2,-28.65"/><animate attributeName="opacity" from="0" to="1" begin="0S0.end+0.00s" dur="3.00s" fill="freeze"/><animate attributeName="opacity" from="1" to="0" begin="0E0.end" dur="0.01s" fill="freeze"/></g><g id="edge8" class="edge" style="opacity:0"><path fill="none" stroke="#7b7b7b" d="M288.02,-98.68C263.98,-103.89 218.64,-113.7 180,-122 159.15,-126.48 135.54,-131.52 117.88,-135.28"/><polygon fill="#7b7b7b" stroke="#7b7b7b" points="107.73,-137.44 116.58,-130.96 112.62,-136.4 117.51,-135.36 117.51,-135.36 117.51,-135.36 112.62,-136.4 118.45,-139.76 107.73,-137.44 107.73,-137.44"/><animate attributeName="opacity" from="0" to="1" begin="0S0.end+0.00s" dur="3.00s" fill="freeze"/><animate attributeName="opacity" from="1" to="0" begin="0E0.end" dur="0.01s" fill="freeze"/></g><g id="edge9" class="edge" style="opacity:0"><path fill="none" stroke="#7b7b7b" d="M287.88,-15.2C258.25,-10.88 195.62,-4.06 144,-14 107.33,-21.06 67.73,-38.79 43.16,-51.11"/><polygon fill="#7b7b7b" stroke="#7b7b7b" points="34.2,-55.7 41.05,-47.14 38.65,-53.42 43.1,-51.14 43.1,-51.14 43.1,-51.14 38.65,-53.42 45.16,-55.15 34.2,-55.7 34.2,-55.7"/><animate attributeName="opacity" from="0" to="1" begin="0S0.end+0.00s" dur="3.00s" fill="freeze"/><animate attributeName="opacity" from="1" to="0" begin="0E0.end" dur="0.01s" fill="freeze"/></g><g id="edge10" class="edge" style="opacity:0"><path fill="none" stroke="#7b7b7b" d="M107.95,-88.94C115.65,-89.82 124.97,-90.88 133.64,-91.87"/><polygon fill="#7b7b7b" stroke="#7b7b7b" points="143.72,-93.03 133.28,-96.36 138.76,-92.46 133.79,-91.89 133.79,-91.89 133.79,-91.89 138.76,-92.46 134.3,-87.42 143.72,-93.03 143.72,-93.03"/><animate attributeName="opacity" from="0" to="1" begin="0S0.end+0.00s" dur="3.00s" fill="freeze"/><animate attributeName="opacity" from="1" to="0" begin="0E0.end" dur="0.01s" fill="freeze"/></g><g id="edge11" class="edge" style="opacity:0"><path fill="none" stroke="#7b7b7b" d="M178.88,-48.03C187.48,-51.84 198.28,-56.63 207.98,-60.92"/><polygon fill="#7b7b7b" stroke="#7b7b7b" points="217.18,-64.99 206.21,-65.06 212.61,-62.97 208.04,-60.94 208.04,-60.94 208.04,-60.94 212.61,-62.97 209.86,-56.83 217.18,-64.99 217.18,-64.99"/><animate attributeName="opacity" from="0" to="1" begin="0S0.end+0.00s" dur="3.00s" fill="freeze"/><animate attributeName="opacity" from="1" to="0" begin="0E0.end" dur="0.01s" fill="freeze"/></g></g><animate attributeName="opacity" id="0S0" from="0" to="1" begin="0s;0E1.end+0s" dur="0.01s" fill="freeze"/><animate attributeName="opacity" id="0E0" begin="0S0.begin+3.5s" from="1" to="0" dur="0.01s" fill="freeze"/></g><g class="frame" style="opacity:0" transform="translate(5,5.0)"><g id="graph0" class="graph" transform="scale(1 1) rotate(0) translate(4 163)"><polygon fill="transparent" stroke="transparent" points="-4,4 -4,-163 328,-163 328,4 -4,4"/><g id="node1" class="node"><ellipse fill="#ffffff" stroke="#7b7b7b" cx="18" cy="-64" rx="18" ry="18"/><text text-anchor="middle" x="18" y="-60.3" font-family="Times New Roman,serif" font-size="14.00" fill="#000000">0</text><animateMotion path="m0,0 l0.00,4.00" begin="0S1.end+0.60s" dur="1.44s" fill="freeze"/><animateMotion path="m0,0 l0,0" begin="0E1.end" dur="0.01s" fill="freeze"/></g><g id="node2" class="node"><ellipse fill="#ffffff" stroke="#7b7b7b" cx="90" cy="-141" rx="18" ry="18"/><text text-anchor="middle" x="90" y="-137.3" font-family="Times New Roman,serif" font-size="14.00" fill="#000000">1</text><animateMotion path="m0,0 l0.00,54.00" begin="0S1.end+0.60s" dur="1.44s" fill="freeze"/><animateMotion path="m0,0 l0,0" begin="0E1.end" dur="0.01s" fill="freeze"/></g><g id="edge3" class="edge" style="opacity:1"><path fill="none" stroke="#7b7b7b" d="M30.87,-77.06C41.7,-88.97 57.87,-106.75 70.41,-120.55"/><polygon fill="#7b7b7b" stroke="#7b7b7b" points="77.3,-128.13 67.24,-123.76 73.94,-124.43 70.57,-120.73 70.57,-120.73 70.57,-120.73 73.94,-124.43 73.9,-117.7 77.3,-128.13 77.3,-128.13"/><animate attributeName="opacity" from="1" to="0" begin="0S1.end+0.00s" dur="0.60s" fill="freeze"/><animate attributeName="opacity" from="0" to="1" begin="0E1.end" dur="0.01s" fill="freeze"/></g><g id="node7" class="node"><ellipse fill="#ffffff" stroke="#7b7b7b" cx="90" cy="-87" rx="18" ry="18"/><text text-anchor="middle" x="90" y="-83.3" font-family="Times New Roman,serif" font-size="14.00" fill="#000000">4</text><animateMotion path="m0,0 l0.00,-54.00" begin="0S1.end+0.60s" dur="1.44s" fill="freeze"/><animateMotion path="m0,0 l0,0" begin="0E1.end" dur="0.01s" fill="freeze"/></g><g id="edge2" class="edge" style="opacity:1"><path fill="none" stroke="#7b7b7b" d="M35.24,-69.33C43.42,-72.02 53.55,-75.35 62.8,-78.39"/><polygon fill="#7b7b7b" stroke="#7b7b7b" points="72.37,-81.53 61.46,-82.69 67.62,-79.97 62.87,-78.41 62.87,-78.41 62.87,-78.41 67.62,-79.97 64.27,-74.14 72.37,-81.53 72.37,-81.53"/><animate attributeName="opacity" from="1" to="0" begin="0S1.end+0.00s" dur="0.60s" fill="freeze"/><animate attributeName="opacity" from="0" to="1" begin="0E1.end" dur="0.01s" fill="freeze"/></g><g id="node8" class="node"><ellipse fill="#ffffff" stroke="#7b7b7b" cx="162" cy="-41" rx="18" ry="18"/><text text-anchor="middle" x="162" y="-37.3" font-family="Times New Roman,serif" font-size="14.00" fill="#000000">5</text><animateMotion path="m0,0 l-72.00,8.00" begin="0S1.end+0.60s" dur="1.44s" fill="freeze"/><animateMotion path="m0,0 l0,0" begin="0E1.end" dur="0.01s" fill="freeze"/></g><g id="edge1" class="edge" style="opacity:1"><path fill="none" stroke="#7b7b7b" d="M35.85,-61.27C60.08,-57.35 105.04,-50.06 133.95,-45.38"/><polygon fill="#7b7b7b" stroke="#7b7b7b" points="144.18,-43.73 135.02,-49.77 139.24,-44.52 134.3,-45.32 134.3,-45.32 134.3,-45.32 139.24,-44.52 133.58,-40.88 144.18,-43.73 144.18,-43.73"/><animate attributeName="opacity" from="1" to="0" begin="0S1.end+0.00s" dur="0.60s" fill="freeze"/><animate attributeName="opacity" from="0" to="1" begin="0E1.end" dur="0.01s" fill="freeze"/></g><g id="node3" class="node"><ellipse fill="#ffffff" stroke="#7b7b7b" cx="162" cy="-95" rx="18" ry="18"/><text text-anchor="middle" x="162" y="-91.3" font-family="Times New Roman,serif" font-size="14.00" fill="#000000">2</text><animateMotion path="m0,0 l0.00,-38.00" begin="0S1.end+0.60s" dur="1.44s" fill="freeze"/><animateMotion path="m0,0 l0,0" begin="0E1.end" dur="0.01s" fill="freeze"/></g><g id="edge4" class="edge" style="opacity:1"><path fill="none" stroke="#7b7b7b" d="M105.5,-131.47C114.89,-125.3 127.31,-117.14 138.02,-110.1"/><polygon fill="#7b7b7b" stroke="#7b7b7b" points="146.51,-104.52 140.63,-113.77 142.34,-107.26 138.16,-110.01 138.16,-110.01 138.16,-110.01 142.34,-107.26 135.69,-106.25 146.51,-104.52 146.51,-104.52"/><animate attributeName="opacity" from="1" to="0" begin="0S1.end+0.00s" dur="0.60s" fill="freeze"/><animate attributeName="opacity" from="0" to="1" begin="0E1.end" dur="0.01s" fill="freeze"/></g><g id="node4" class="node"><ellipse fill="#ffffff" stroke="#7b7b7b" cx="234" cy="-72" rx="18" ry="18"/><text text-anchor="middle" x="234" y="-68.3" font-family="Times New Roman,serif" font-size="14.00" fill="#000000">3</text><animateMotion path="m0,0 l0.00,16.00" begin="0S1.end+0.60s" dur="1.44s" fill="freeze"/><animateMotion path="m0,0 l0,0" begin="0E1.end" dur="0.01s" fill="freeze"/></g><g id="edge5" class="edge" style="opacity:1"><path fill="none" stroke="#7b7b7b" d="M179.24,-89.67C187.42,-86.98 197.55,-83.65 206.8,-80.61"/><polygon fill="#7b7b7b" stroke="#7b7b7b" points="216.37,-77.47 208.27,-84.86 211.62,-79.03 206.87,-80.59 206.87,-80.59 206.87,-80.59 211.62,-79.03 205.46,-76.31 216.37,-77.47 216.37,-77.47"/><animate attributeName="opacity" from="1" to="0" begin="0S1.end+0.00s" dur="0.60s" fill="freeze"/><animate attributeName="opacity" from="0" to="1" begin="0E1.end" dur="0.01s" fill="freeze"/></g><g id="node5" class="node"><ellipse fill="#ffffff" stroke="#7b7b7b" cx="306" cy="-95" rx="18" ry="18"/><text text-anchor="middle" x="306" y="-91.3" font-family="Times New Roman,serif" font-size="14.00" fill="#000000">6</text><animateMotion path="m0,0 l-144.00,16.00" begin="0S1.end+0.60s" dur="1.44s" fill="freeze"/><animateMotion path="m0,0 l0,0" begin="0E1.end" dur="0.01s" fill="freeze"/></g><g id="edge7" class="edge" style="opacity:1"><path fill="none" stroke="#7b7b7b" d="M251.24,-77.33C259.42,-80.02 269.55,-83.35 278.8,-86.39"/><polygon fill="#7b7b7b" stroke="#7b7b7b" points="288.37,-89.53 277.46,-90.69 283.62,-87.97 278.87,-86.41 278.87,-86.41 278.87,-86.41 283.62,-87.97 280.27,-82.14 288.37,-89.53 288.37,-89.53"/><animate attributeName="opacity" from="1" to="0" begin="0S1.end+0.00s" dur="0.60s" fill="freeze"/><animate attributeName="opacity" from="0" to="1" begin="0E1.end" dur="0.01s" fill="freeze"/></g><g id="node6" class="node"><ellipse fill="#ffffff" stroke="#7b7b7b" cx="306" cy="-18" rx="18" ry="18"/><text text-anchor="middle" x="306" y="-14.3" font-family="Times New Roman,serif" font-size="14.00" fill="#000000">7</text><animateMotion path="m0,0 l-144.00,31.00" begin="0S1.end+0.60s" dur="1.44s" fill="freeze"/><animateMotion path="m0,0 l0,0" begin="0E1.end" dur="0.01s" fill="freeze"/></g><g id="edge6" class="edge" style="opacity:1"><path fill="none" stroke="#7b7b7b" d="M248.83,-61.33C258.61,-53.79 271.92,-43.52 283.13,-34.87"/><polygon fill="#7b7b7b" stroke="#7b7b7b" points="291.2,-28.65 286.03,-38.32 287.24,-31.7 283.28,-34.75 283.28,-34.75 283.28,-34.75 287.24,-31.7 280.53,-31.19 291.2,-28.65 291.2,-28.65"/><animate attributeName="opacity" from="1" to="0" begin="0S1.end+0.00s" dur="0.60s" fill="freeze"/><animate attributeName="opacity" from="0" to="1" begin="0E1.end" dur="0.01s" fill="freeze"/></g><g id="edge8" class="edge" style="opacity:1"><path fill="none" stroke="#7b7b7b" d="M288.02,-98.68C263.98,-103.89 218.64,-113.7 180,-122 159.15,-126.48 135.54,-131.52 117.88,-135.28"/><polygon fill="#7b7b7b" stroke="#7b7b7b" points="107.73,-137.44 116.58,-130.96 112.62,-136.4 117.51,-135.36 117.51,-135.36 117.51,-135.36 112.62,-136.4 118.45,-139.76 107.73,-137.44 107.73,-137.44"/><animate attributeName="opacity" from="1" to="0" begin="0S1.end+0.00s" dur="0.60s" fill="freeze"/><animate attributeName="opacity" from="0" to="1" begin="0E1.end" dur="0.01s" fill="freeze"/></g><g id="edge9" class="edge" style="opacity:1"><path fill="none" stroke="#7b7b7b" d="M287.88,-15.2C258.25,-10.88 195.62,-4.06 144,-14 107.33,-21.06 67.73,-38.79 43.16,-51.11"/><polygon fill="#7b7b7b" stroke="#7b7b7b" points="34.2,-55.7 41.05,-47.14 38.65,-53.42 43.1,-51.14 43.1,-51.14 43.1,-51.14 38.65,-53.42 45.16,-55.15 34.2,-55.7 34.2,-55.7"/><animate attributeName="opacity" from="1" to="0" begin="0S1.end+0.00s" dur="0.60s" fill="freeze"/><animate attributeName="opacity" from="0" to="1" begin="0E1.end" dur="0.01s" fill="freeze"/></g><g id="edge10" class="edge" style="opacity:1"><path fill="none" stroke="#7b7b7b" d="M107.95,-88.94C115.65,-89.82 124.97,-90.88 133.64,-91.87"/><polygon fill="#7b7b7b" stroke="#7b7b7b" points="143.72,-93.03 133.28,-96.36 138.76,-92.46 133.79,-91.89 133.79,-91.89 133.79,-91.89 138.76,-92.46 134.3,-87.42 143.72,-93.03 143.72,-93.03"/><animate attributeName="opacity" from="1" to="0" begin="0S1.end+0.00s" dur="0.60s" fill="freeze"/><animate attributeName="opacity" from="0" to="1" begin="0E1.end" dur="0.01s" fill="freeze"/></g><g id="edge11" class="edge" style="opacity:1"><path fill="none" stroke="#7b7b7b" d="M178.88,-48.03C187.48,-51.84 198.28,-56.63 207.98,-60.92"/><polygon fill="#7b7b7b" stroke="#7b7b7b" points="217.18,-64.99 206.21,-65.06 212.61,-62.97 208.04,-60.94 208.04,-60.94 208.04,-60.94 212.61,-62.97 209.86,-56.83 217.18,-64.99 217.18,-64.99"/><animate attributeName="opacity" from="1" to="0" begin="0S1.end+0.00s" dur="0.60s" fill="freeze"/><animate attributeName="opacity" from="0" to="1" begin="0E1.end" dur="0.01s" fill="freeze"/></g></g><g id="graph1" class="graph" transform="scale(1 1) rotate(0) translate(4 194)"><g id="edge3" class="edge" style="opacity:0"><path fill="none" stroke="#7b7b7b" d="M35.24,-97.26C43.63,-100.5 54.07,-104.53 63.5,-108.17"/><polygon fill="#7b7b7b" stroke="#7b7b7b" points="72.85,-111.77 61.9,-112.37 68.19,-109.97 63.52,-108.17 63.52,-108.17 63.52,-108.17 68.19,-109.97 65.14,-103.97 72.85,-111.77 72.85,-111.77"/><animate attributeName="opacity" from="0" to="1" begin="0S1.end+2.04s" dur="0.96s" fill="freeze"/><animate attributeName="opacity" from="1" to="0" begin="0E1.end" dur="0.01s" fill="freeze"/></g><g id="edge2" class="edge" style="opacity:0"><path fill="none" stroke="#7b7b7b" d="M30.56,-104.38C41.57,-117.11 58.3,-136.48 71.05,-151.23"/><polygon fill="#7b7b7b" stroke="#7b7b7b" points="77.66,-158.87 67.71,-154.25 74.39,-155.09 71.12,-151.31 71.12,-151.31 71.12,-151.31 74.39,-155.09 74.52,-148.36 77.66,-158.87 77.66,-158.87"/><animate attributeName="opacity" from="0" to="1" begin="0S1.end+2.04s" dur="0.96s" fill="freeze"/><animate attributeName="opacity" from="1" to="0" begin="0E1.end" dur="0.01s" fill="freeze"/></g><g id="edge1" class="edge" style="opacity:0"><path fill="none" stroke="#7b7b7b" d="M35.24,-84.74C43.63,-81.5 54.07,-77.47 63.5,-73.83"/><polygon fill="#7b7b7b" stroke="#7b7b7b" points="72.85,-70.23 65.14,-78.03 68.19,-72.03 63.52,-73.83 63.52,-73.83 63.52,-73.83 68.19,-72.03 61.9,-69.63 72.85,-70.23 72.85,-70.23"/><animate attributeName="opacity" from="0" to="1" begin="0S1.end+2.04s" dur="0.96s" fill="freeze"/><animate attributeName="opacity" from="1" to="0" begin="0E1.end" dur="0.01s" fill="freeze"/></g><g id="edge12" class="edge" style="opacity:0"><path fill="none" stroke="#7b7b7b" d="M29.09,-76.75C38.69,-64.31 54.27,-46.74 72,-37 91.1,-26.5 115.45,-21.8 133.86,-19.7"/><polygon fill="#7b7b7b" stroke="#7b7b7b" points="143.92,-18.74 134.39,-24.17 138.94,-19.21 133.96,-19.69 133.96,-19.69 133.96,-19.69 138.94,-19.21 133.53,-15.21 143.92,-18.74 143.92,-18.74"/><animate attributeName="opacity" from="0" to="1" begin="0S1.end+2.04s" dur="0.96s" fill="freeze"/><animate attributeName="opacity" from="1" to="0" begin="0E1.end" dur="0.01s" fill="freeze"/></g><g id="edge4" class="edge" style="opacity:0"><path fill="none" stroke="#7b7b7b" d="M105.5,-127.53C114.89,-133.7 127.31,-141.86 138.02,-148.9"/><polygon fill="#7b7b7b" stroke="#7b7b7b" points="146.51,-154.48 135.69,-152.75 142.34,-151.74 138.16,-148.99 138.16,-148.99 138.16,-148.99 142.34,-151.74 140.63,-145.23 146.51,-154.48 146.51,-154.48"/><animate attributeName="opacity" from="0" to="1" begin="0S1.end+2.04s" dur="0.96s" fill="freeze"/><animate attributeName="opacity" from="1" to="0" begin="0E1.end" dur="0.01s" fill="freeze"/></g><g id="edge13" class="edge" style="opacity:0"><path fill="none" stroke="#7b7b7b" d="M107.95,-116.06C115.65,-115.18 124.97,-114.12 133.64,-113.13"/><polygon fill="#7b7b7b" stroke="#7b7b7b" points="143.72,-111.97 134.3,-117.58 138.76,-112.54 133.79,-113.11 133.79,-113.11 133.79,-113.11 138.76,-112.54 133.28,-108.64 143.72,-111.97 143.72,-111.97"/><animate attributeName="opacity" from="0" to="1" begin="0S1.end+2.04s" dur="0.96s" fill="freeze"/><animate attributeName="opacity" from="1" to="0" begin="0E1.end" dur="0.01s" fill="freeze"/></g><g id="edge5" class="edge" style="opacity:0"><path fill="none" stroke="#7b7b7b" d="M174.87,-150.94C185.7,-139.03 201.87,-121.25 214.41,-107.45"/><polygon fill="#7b7b7b" stroke="#7b7b7b" points="221.3,-99.87 217.9,-110.3 217.94,-103.57 214.57,-107.27 214.57,-107.27 214.57,-107.27 217.94,-103.57 211.24,-104.24 221.3,-99.87 221.3,-99.87"/><animate attributeName="opacity" from="0" to="1" begin="0S1.end+2.04s" dur="0.96s" fill="freeze"/><animate attributeName="opacity" from="1" to="0" begin="0E1.end" dur="0.01s" fill="freeze"/></g><g id="edge14" class="edge" style="opacity:0"><path fill="none" stroke="#7b7b7b" d="M179.24,-104.67C187.42,-101.98 197.55,-98.65 206.8,-95.61"/><polygon fill="#7b7b7b" stroke="#7b7b7b" points="216.37,-92.47 208.27,-99.86 211.62,-94.03 206.87,-95.59 206.87,-95.59 206.87,-95.59 211.62,-94.03 205.46,-91.31 216.37,-92.47 216.37,-92.47"/><animate attributeName="opacity" from="0" to="1" begin="0S1.end+2.04s" dur="0.96s" fill="freeze"/><animate attributeName="opacity" from="1" to="0" begin="0E1.end" dur="0.01s" fill="freeze"/></g><g id="edge10" class="edge" style="opacity:0"><path fill="none" stroke="#7b7b7b" d="M107.95,-170.06C115.65,-169.18 124.97,-168.12 133.64,-167.13"/><polygon fill="#7b7b7b" stroke="#7b7b7b" points="143.72,-165.97 134.3,-171.58 138.76,-166.54 133.79,-167.11 133.79,-167.11 133.79,-167.11 138.76,-166.54 133.28,-162.64 143.72,-165.97 143.72,-165.97"/><animate attributeName="opacity" from="0" to="1" begin="0S1.end+2.04s" dur="0.96s" fill="freeze"/><animate attributeName="opacity" from="1" to="0" begin="0E1.end" dur="0.01s" fill="freeze"/></g><g id="edge11" class="edge" style="opacity:0"><path fill="none" stroke="#7b7b7b" d="M107.85,-66.73C132.08,-70.65 177.04,-77.94 205.95,-82.62"/><polygon fill="#7b7b7b" stroke="#7b7b7b" points="216.18,-84.27 205.58,-87.12 211.24,-83.48 206.3,-82.68 206.3,-82.68 206.3,-82.68 211.24,-83.48 207.02,-78.23 216.18,-84.27 216.18,-84.27"/><animate attributeName="opacity" from="0" to="1" begin="0S1.end+2.04s" dur="0.96s" fill="freeze"/><animate attributeName="opacity" from="1" to="0" begin="0E1.end" dur="0.01s" fill="freeze"/></g><g id="edge15" class="edge" style="opacity:0"><path fill="none" stroke="#7b7b7b" d="M175.51,-30.34C185.97,-40.64 201.06,-55.51 213.16,-67.44"/><polygon fill="#7b7b7b" stroke="#7b7b7b" points="220.59,-74.77 210.31,-70.96 217.03,-71.26 213.47,-67.75 213.47,-67.75 213.47,-67.75 217.03,-71.26 216.63,-64.55 220.59,-74.77 220.59,-74.77"/><animate attributeName="opacity" from="0" to="1" begin="0S1.end+2.04s" dur="0.96s" fill="freeze"/><animate attributeName="opacity" from="1" to="0" begin="0E1.end" dur="0.01s" fill="freeze"/></g></g><animate attributeName="opacity" id="0S1" from="0" to="1" begin="0E0.begin" dur="0.01s" fill="freeze"/><animate attributeName="opacity" id="0E1" begin="0S1.begin+3.5s" from="1" to="0" dur="0.01s" fill="freeze"/></g><g><animate attributeName="opacity" begin="1S2.begin" from="1" to="0" dur="0.01s" fill="freeze"/><animate attributeName="opacity" from="0" to="1" begin="1E2.end" dur="0.01s" fill="freeze"/></g></a></svg>